<?xml version="1.0" encoding="utf-8"?>
<?xml-stylesheet type="text/xsl" href="rss1.xsl"?>
<rss version="2.0" xmlns:atom="http://www.w3.org/2005/Atom" xmlns:content="http://purl.org/rss/1.0/modules/content/" xmlns:dc="http://purl.org/dc/elements/1.1/" xmlns:media="http://search.yahoo.com/mrss/">
<channel>
 <title>Getty</title>
 <link>http://www.gettyimg.com/</link>
 <atom:link href="http://www.gettyimg.com/" rel="self" type="application/rss+xml" />

 
                <item>
                <title><![CDATA[【HD Live Performances】WEB-DL - Ava Max - Live at Coca-Cola Music Experience 2023 (1080p)]]></title>
                <link><![CDATA[https://sharemania.us/threads/ava-max-live-at-coca-cola-music-experience-2023-1080p.229254/]]></link>
                <description><![CDATA[<article>
<blockquote class="messageText SelectQuoteContainer ugc baseHtml">
<img src="https://images2.imgbox.com/0a/d2/h4Q6JAWa_o.jpg" class="bbCodeImage LbImage" alt="[​IMG]" data-url="https://images2.imgbox.com/0a/d2/h4Q6JAWa_o.jpg" style=""><br>
<br>
<img src="https://images2.imgbox.com/94/56/pUnF2FHh_o.jpg" class="bbCodeImage LbImage" alt="[​IMG]" data-url="https://images2.imgbox.com/94/56/pUnF2FHh_o.jpg" style=""> <br>
<br>
<b>Setlist</b>:<br>
1. Diamonds &amp; Dancefloors<br>
2. My Head &amp; My Heart<br>
3. Who's Laughing Now<br>
4. Hold Up (Wait a Minute)<br>
5. Kings &amp; Queens<br>
6. Maybe You’re the Problem<br>
7. Belladonna<br>
8. Not Your Barbie Girl<br>
9. Salt<br>
10. Dancing’s Done<br>
11. Sleepwalker<br>
12. Million Dollar Baby<br>
13. Sweet but Psycho<br>
14. The Motto<br>
<br>
<div class="ToggleTriggerAnchor bbCodeSpoilerContainer">
<button type="button" class="button bbCodeSpoilerButton ToggleTrigger Tooltip JsOnly" data-target="> .SpoilerTarget"><span>Spoiler: <span class="SpoilerTitle">MediaInfo</span></span></button>
<div class="SpoilerTarget bbCodeSpoilerText">
<div class="bbCodeBlock bbCodeCode">
<div class="type">Code:</div>
<pre>General
Complete name                            : H:\Coca-Cola Music Experience 2023\Ava Max - Live at Coca-Cola Music Experience 2023.mp4
Format                                   : MPEG-4
Format profile                           : Base Media
Codec ID                                 : isom (isom/mp42)
File size                                : 1.08 GiB
Duration                                 : 39 min 24 s
Overall bit rate                         : 3 934 kb/s
Frame rate                               : 30.000 FPS
Writing application                      : Lavf60.13.100

Video
ID                                       : 1
Format                                   : AVC
Format/Info                              : Advanced Video Codec
Format profile                           : High@L4
Format settings                          : CABAC / 3 Ref Frames
Format settings, CABAC                   : Yes
Format settings, Reference frames        : 3 frames
Codec ID                                 : avc1
Codec ID/Info                            : Advanced Video Coding
Duration                                 : 39 min 24 s
Source duration                          : 39 min 24 s
Bit rate                                 : 3 642 kb/s
Width                                    : 1 920 pixels
Height                                   : 1 080 pixels
Display aspect ratio                     : 16:9
Frame rate mode                          : Constant
Frame rate                               : 30.000 FPS
Color space                              : YUV
Chroma subsampling                       : 4:2:0
Bit depth                                : 8 bits
Scan type                                : Progressive
Bits/(Pixel*Frame)                       : 0.059
Stream size                              : 1.00 GiB (93%)
Source stream size                       : 1.05 GiB (97%)
Language                                 : English
Color range                              : Limited
Color primaries                          : BT.709
Transfer characteristics                 : BT.709
Matrix coefficients                      : BT.709
mdhd_Duration                            : 2364400
Codec configuration box                  : avcC

Audio
ID                                       : 2
Format                                   : AAC LC
Format/Info                              : Advanced Audio Codec Low Complexity
Codec ID                                 : mp4a-40-2
Duration                                 : 39 min 24 s
Source duration                          : 39 min 24 s
Bit rate mode                            : Constant
Bit rate                                 : 128 kb/s
Channel(s)                               : 2 channels
Channel layout                           : L R
Sampling rate                            : 44.1 kHz
Frame rate                               : 43.066 FPS (1024 SPF)
Compression mode                         : Lossy
Stream size                              : 36.1 MiB (3%)
Source stream size                       : 36.1 MiB (3%)
Language                                 : English
mdhd_Duration                            : 2364398
</pre>
</div></div>
</div><br>
<div class="bbCodeBlock bbCodeVfcHH HiddenContent">
<div class="attribution type">Hidden Content:</div>
<blockquote>You must reply before you can see the hidden data contained here.</blockquote>
</div>
<div class="messageTextEndMarker">&nbsp;</div>
</blockquote>
</article>]]></description>
                <author><![CDATA[Gizmo234]]></author>
                </item>

                
                <item>
                <title><![CDATA[【HD Live Performances】WEB-DL - Maria Becerra - Live at Coca-Cola Music Experience 2023]]></title>
                <link><![CDATA[https://sharemania.us/threads/maria-becerra-live-at-coca-cola-music-experience-2023.229256/]]></link>
                <description><![CDATA[<article>
<blockquote class="messageText SelectQuoteContainer ugc baseHtml">
<img src="https://images2.imgbox.com/95/42/bw2qc6FF_o.jpg" class="bbCodeImage LbImage" alt="[​IMG]" data-url="https://images2.imgbox.com/95/42/bw2qc6FF_o.jpg" style=""> <br>
<br>
<img src="https://images2.imgbox.com/02/8c/AsT6S8hP_o.jpg" class="bbCodeImage LbImage" alt="[​IMG]" data-url="https://images2.imgbox.com/02/8c/AsT6S8hP_o.jpg" style=""> <br>
<br>
<div class="ToggleTriggerAnchor bbCodeSpoilerContainer">
<button type="button" class="button bbCodeSpoilerButton ToggleTrigger Tooltip JsOnly" data-target="> .SpoilerTarget"><span>Spoiler: <span class="SpoilerTitle">MediaInfo</span></span></button>
<div class="SpoilerTarget bbCodeSpoilerText">
<div class="bbCodeBlock bbCodeCode">
<div class="type">Code:</div>
<pre>General
Complete name                            : H:\vvvv\Coca-Cola Music Experience 2023\Maria Becerra - Live at Coca-Cola Music Experience 2023.mp4
Format                                   : MPEG-4
Format profile                           : Base Media
Codec ID                                 : isom (isom/mp42)
File size                                : 1.47 GiB
Duration                                 : 49 min 3 s
Overall bit rate                         : 4 283 kb/s
Frame rate                               : 30.000 FPS
Writing application                      : Lavf60.13.100

Video
ID                                       : 1
Format                                   : AVC
Format/Info                              : Advanced Video Codec
Format profile                           : High@L4
Format settings                          : CABAC / 3 Ref Frames
Format settings, CABAC                   : Yes
Format settings, Reference frames        : 3 frames
Codec ID                                 : avc1
Codec ID/Info                            : Advanced Video Coding
Duration                                 : 49 min 3 s
Source duration                          : 49 min 3 s
Bit rate                                 : 4 150 kb/s
Width                                    : 1 920 pixels
Height                                   : 1 080 pixels
Display aspect ratio                     : 16:9
Frame rate mode                          : Constant
Frame rate                               : 30.000 FPS
Color space                              : YUV
Chroma subsampling                       : 4:2:0
Bit depth                                : 8 bits
Scan type                                : Progressive
Bits/(Pixel*Frame)                       : 0.067
Stream size                              : 1.42 GiB (97%)
Source stream size                       : 1.42 GiB (97%)
Language                                 : English
Color range                              : Limited
Color primaries                          : BT.709
Transfer characteristics                 : BT.709
Matrix coefficients                      : BT.709
mdhd_Duration                            : 2943667
Codec configuration box                  : avcC

Audio
ID                                       : 2
Format                                   : AAC LC
Format/Info                              : Advanced Audio Codec Low Complexity
Codec ID                                 : mp4a-40-2
Duration                                 : 49 min 3 s
Source duration                          : 49 min 3 s
Bit rate mode                            : Constant
Bit rate                                 : 128 kb/s
Channel(s)                               : 2 channels
Channel layout                           : L R
Sampling rate                            : 44.1 kHz
Frame rate                               : 43.066 FPS (1024 SPF)
Compression mode                         : Lossy
Stream size                              : 44.9 MiB (3%)
Source stream size                       : 44.9 MiB (3%)
Language                                 : English
mdhd_Duration                            : 2943728
</pre>
</div></div>
</div><br>
<div class="bbCodeBlock bbCodeVfcHH HiddenContent">
<div class="attribution type">Hidden Content:</div>
<blockquote>You must reply before you can see the hidden data contained here.</blockquote>
</div>
<div class="messageTextEndMarker">&nbsp;</div>
</blockquote>
</article>]]></description>
                <author><![CDATA[Gizmo234]]></author>
                </item>

                
                <item>
                <title><![CDATA[【Requests】[REQ AUD] - Apple music album 320kbps mp3 or flac]]></title>
                <link><![CDATA[https://sharemania.us/threads/apple-music-album-320kbps-mp3-or-flac.229255/]]></link>
                <description><![CDATA[<article>
<blockquote class="messageText SelectQuoteContainer ugc baseHtml">
<a href="https://music.apple.com/us/album/party-groove-white-party-vol-7/279201471" target="_blank" class="externalLink" rel="nofollow">https://music.apple.com/us/album/party-groove-white-party-vol-7/279201471</a>
<div class="messageTextEndMarker">&nbsp;</div>
</blockquote>
</article>]]></description>
                <author><![CDATA[Robert Forever]]></author>
                </item>

                </channel></rss>